<svg width="302" height="65" viewBox="0 0 302 65" fill="none" xmlns="http://www.w3.org/2000/svg">
<path d="M185.965 36.3882L198.958 36.2832" stroke="#313F88" stroke-width="1.5" stroke-miterlimit="10"/>
<path d="M186.023 55.64L206.865 55.532" stroke="#313F88" stroke-width="1.5" stroke-miterlimit="10"/>
<path d="M198.961 36.2832V62.9465" stroke="#313F88" stroke-width="1.5" stroke-miterlimit="10"/>
<path d="M185.965 36.3879V62.7362" stroke="#313F88" stroke-width="1.5" stroke-miterlimit="10"/>
<path d="M206.804 62.7363H185.965" stroke="#313F88" stroke-width="1.5" stroke-miterlimit="10"/>
<path d="M206.865 55.532L206.805 62.7364" stroke="#313F88" stroke-width="1.5" stroke-miterlimit="10"/>
<path d="M127.621 36.5085L142.644 64.0001" stroke="#313F88" stroke-width="1.5" stroke-miterlimit="10"/>
<path d="M156.967 36.5085L142.645 64.0001" stroke="#313F88" stroke-width="1.5" stroke-miterlimit="10"/>
<path d="M127.621 36.5085L135.648 36.6226" stroke="#313F88" stroke-width="1.5" stroke-miterlimit="10"/>
<path d="M146.452 56.6936L135.648 36.6226" stroke="#313F88" stroke-width="1.5" stroke-miterlimit="10"/>
<path d="M145.434 36.5085L140.328 45.3123" stroke="#313F88" stroke-width="1.5" stroke-miterlimit="10"/>
<path d="M156.968 36.5085H145.434" stroke="#313F88" stroke-width="1.5" stroke-miterlimit="10"/>
<path d="M112.348 36.5085H122.753" stroke="#313F88" stroke-width="1.5" stroke-miterlimit="10"/>
<path d="M112.348 63.0999H122.753" stroke="#313F88" stroke-width="1.5" stroke-miterlimit="10"/>
<path d="M122.754 36.5085V63.0999" stroke="#313F88" stroke-width="1.5" stroke-miterlimit="10"/>
<path d="M112.348 36.5085V63.0999" stroke="#313F88" stroke-width="1.5" stroke-miterlimit="10"/>
<path d="M112.348 45.5193H122.753" stroke="#313F88" stroke-width="1.5" stroke-miterlimit="10"/>
<path d="M78.3867 36.6042L78.5293 43.1726" stroke="#313F88" stroke-width="1.5" stroke-miterlimit="10"/>
<path d="M106.453 36.2832L106.587 43.0106" stroke="#313F88" stroke-width="1.5" stroke-miterlimit="10"/>
<path d="M78.5273 43.1723L106.584 43.0103" stroke="#313F88" stroke-width="1.5" stroke-miterlimit="10"/>
<path d="M106.501 36.4541L78.3867 36.6041" stroke="#313F88" stroke-width="1.5" stroke-miterlimit="10"/>
<path d="M87.2344 43.1216V62.9796" stroke="#313F88" stroke-width="1.5" stroke-miterlimit="10"/>
<path d="M98.043 43.0583V62.9793" stroke="#313F88" stroke-width="1.5" stroke-miterlimit="10"/>
<path d="M87.2344 62.9795H98.0437" stroke="#313F88" stroke-width="1.5" stroke-miterlimit="10"/>
<path d="M26.9453 36.5085V62.6768" stroke="#313F88" stroke-width="1.5" stroke-miterlimit="10"/>
<path d="M47.555 36.5085L47.4883 42.3267" stroke="#313F88" stroke-width="1.5" stroke-miterlimit="10"/>
<path d="M26.9453 36.5085H47.5536" stroke="#313F88" stroke-width="1.5" stroke-miterlimit="10"/>
<path d="M26.8789 42.3267H47.4872" stroke="#313F88" stroke-width="1.5" stroke-miterlimit="10"/>
<path d="M27.0117 56.7505H47.62" stroke="#313F88" stroke-width="1.5" stroke-miterlimit="10"/>
<path d="M26.9453 62.6768H47.5536" stroke="#313F88" stroke-width="1.5" stroke-miterlimit="10"/>
<path d="M47.6214 56.7505L47.5547 62.6767" stroke="#313F88" stroke-width="1.5" stroke-miterlimit="10"/>
<path d="M39.7461 42.3267V56.7505" stroke="#313F88" stroke-width="1.5" stroke-miterlimit="10"/>
<path d="M39.8633 52.0996H47.5205" stroke="#313F88" stroke-width="1.5" stroke-miterlimit="10"/>
<path d="M39.7461 46.5154L47.6308 46.4734" stroke="#313F88" stroke-width="1.5" stroke-miterlimit="10"/>
<path d="M46.9141 46.6042V52.4374" stroke="#313F88" stroke-width="1.5" stroke-miterlimit="10"/>
<path d="M0.894531 36.0576H21.7334" stroke="#313F88" stroke-width="1.5" stroke-miterlimit="10"/>
<path d="M0.921875 41.7317H21.7608" stroke="#313F88" stroke-width="1.5" stroke-miterlimit="10"/>
<path d="M21.7344 36.0576L21.7617 41.7318" stroke="#313F88" stroke-width="1.5" stroke-miterlimit="10"/>
<path d="M0.894531 36.0576V62.5949" stroke="#313F88" stroke-width="1.5" stroke-miterlimit="10"/>
<path d="M13.8906 41.7317V62.5949" stroke="#313F88" stroke-width="1.5" stroke-miterlimit="10"/>
<path d="M0.894531 62.595H13.8881" stroke="#313F88" stroke-width="1.5" stroke-miterlimit="10"/>
<path d="M13.8906 50.7427L21.6935 50.7463" stroke="#313F88" stroke-width="1.5" stroke-miterlimit="10"/>
<path d="M13.9648 45.8757H21.7616" stroke="#313F88" stroke-width="1.5" stroke-miterlimit="10"/>
<path d="M21.1758 46.0742V50.8468" stroke="#313F88" stroke-width="1.5" stroke-miterlimit="10"/>
<path d="M247.32 1.33036L272 1.22534" stroke="#313F88" stroke-width="1.5" stroke-miterlimit="10"/>
<path d="M271.949 20.7622L272.001 27.8796" stroke="#313F88" stroke-width="1.5" stroke-miterlimit="10"/>
<path d="M247.43 27.8799H272" stroke="#313F88" stroke-width="1.5" stroke-miterlimit="10"/>
<path d="M247.379 20.7622H271.949" stroke="#313F88" stroke-width="1.5" stroke-miterlimit="10"/>
<path d="M247.43 27.8796V17.3235" stroke="#313F88" stroke-width="1.5" stroke-miterlimit="10"/>
<path d="M247.32 1.33032L247.43 7.75161" stroke="#313F88" stroke-width="1.5" stroke-miterlimit="10"/>
<path d="M247.43 7.75151L272 7.64648" stroke="#313F88" stroke-width="1.5" stroke-miterlimit="10"/>
<path d="M271.949 11.1873L272.001 1.22534" stroke="#313F88" stroke-width="1.5" stroke-miterlimit="10"/>
<path d="M247.43 17.3236L271.988 1.23438" stroke="#313F88" stroke-width="1.5" stroke-miterlimit="10"/>
<path d="M271.949 11.1875L247.43 27.8799" stroke="#313F88" stroke-width="1.5" stroke-miterlimit="10"/>
<path d="M276.039 1.10501L300.719 1" stroke="#313F88" stroke-width="1.5" stroke-miterlimit="10"/>
<path d="M300.668 20.5369L300.72 27.6543" stroke="#313F88" stroke-width="1.5" stroke-miterlimit="10"/>
<path d="M276.148 27.6545H300.719" stroke="#313F88" stroke-width="1.5" stroke-miterlimit="10"/>
<path d="M276.098 20.5369H300.668" stroke="#313F88" stroke-width="1.5" stroke-miterlimit="10"/>
<path d="M276.148 27.6543V17.0981" stroke="#313F88" stroke-width="1.5" stroke-miterlimit="10"/>
<path d="M276.039 1.10498L276.148 7.52627" stroke="#313F88" stroke-width="1.5" stroke-miterlimit="10"/>
<path d="M276.148 7.52641L300.719 7.42139" stroke="#313F88" stroke-width="1.5" stroke-miterlimit="10"/>
<path d="M300.668 10.962L300.72 1" stroke="#313F88" stroke-width="1.5" stroke-miterlimit="10"/>
<path d="M276.148 17.098L300.707 1.00879" stroke="#313F88" stroke-width="1.5" stroke-miterlimit="10"/>
<path d="M300.667 10.9622L276.148 27.6545" stroke="#313F88" stroke-width="1.5" stroke-miterlimit="10"/>
<path d="M203.836 1.22534H214.442" stroke="#313F88" stroke-width="1.5" stroke-miterlimit="10"/>
<path d="M203.836 27.8167V1.22534" stroke="#313F88" stroke-width="1.5" stroke-miterlimit="10"/>
<path d="M214.441 1.22534V15.5202" stroke="#313F88" stroke-width="1.5" stroke-miterlimit="10"/>
<path d="M191.711 15.5203H214.44" stroke="#313F88" stroke-width="1.5" stroke-miterlimit="10"/>
<path d="M191.711 15.5203C191.711 22.3166 197.132 27.8197 203.834 27.8197" stroke="#313F88" stroke-width="1.5" stroke-miterlimit="10"/>
<path d="M214.437 15.5203C214.437 22.3166 209.692 27.8197 203.828 27.8197" stroke="#313F88" stroke-width="1.5" stroke-miterlimit="10"/>
<path d="M168.617 2.35229L168.708 18.1384" stroke="#313F88" stroke-width="1.5" stroke-miterlimit="10"/>
<path d="M151.27 12.7976L151.361 28.6438" stroke="#313F88" stroke-width="1.5" stroke-miterlimit="10"/>
<path d="M168.662 13.0974H151.27" stroke="#313F88" stroke-width="1.5" stroke-miterlimit="10"/>
<path d="M151.359 28.6438H168.661" stroke="#313F88" stroke-width="1.5" stroke-miterlimit="10"/>
<path d="M168.613 2.35229L153.617 2.3703" stroke="#313F88" stroke-width="1.5" stroke-miterlimit="10"/>
<path d="M168.706 18.1384H153.98" stroke="#313F88" stroke-width="1.5" stroke-miterlimit="10"/>
<path d="M147.723 9.96788C147.723 5.76704 150.359 2.37036 153.617 2.37036" stroke="#313F88" stroke-width="1.5" stroke-miterlimit="10"/>
<path d="M147.723 9.96802C147.723 14.4839 150.52 18.1386 153.978 18.1386" stroke="#313F88" stroke-width="1.5" stroke-miterlimit="10"/>
<path d="M173.812 20.6439C173.812 16.3081 171.51 13.0974 168.664 13.0974" stroke="#313F88" stroke-width="1.5" stroke-miterlimit="10"/>
<path d="M173.812 20.644C173.812 25.0669 171.51 28.6436 168.664 28.6436" stroke="#313F88" stroke-width="1.5" stroke-miterlimit="10"/>
<path d="M73.5273 36.5085L73.6184 52.2947" stroke="#313F88" stroke-width="1.5" stroke-miterlimit="10"/>
<path d="M56.1797 46.9536L56.2707 62.7998" stroke="#313F88" stroke-width="1.5" stroke-miterlimit="10"/>
<path d="M73.5722 47.2537H56.1797" stroke="#313F88" stroke-width="1.5" stroke-miterlimit="10"/>
<path d="M56.2695 62.7998H73.5711" stroke="#313F88" stroke-width="1.5" stroke-miterlimit="10"/>
<path d="M73.5232 36.5085L58.5273 36.5265" stroke="#313F88" stroke-width="1.5" stroke-miterlimit="10"/>
<path d="M73.6165 52.2947H58.8906" stroke="#313F88" stroke-width="1.5" stroke-miterlimit="10"/>
<path d="M52.6328 44.1241C52.6328 39.9233 55.2691 36.5266 58.5274 36.5266" stroke="#313F88" stroke-width="1.5" stroke-miterlimit="10"/>
<path d="M52.6328 44.124C52.6328 48.6399 55.4299 52.2947 58.8884 52.2947" stroke="#313F88" stroke-width="1.5" stroke-miterlimit="10"/>
<path d="M78.7225 54.8002C78.7225 50.4643 76.4199 47.2537 73.5742 47.2537" stroke="#313F88" stroke-width="1.5" stroke-miterlimit="10"/>
<path d="M78.7225 54.8C78.7225 59.2229 76.4199 62.7997 73.5742 62.7997" stroke="#313F88" stroke-width="1.5" stroke-miterlimit="10"/>
<path d="M128.262 2.2229L128.356 16.0407" stroke="#313F88" stroke-width="1.5" stroke-miterlimit="10"/>
<path d="M136.246 2.12695L136.152 15.9447" stroke="#313F88" stroke-width="1.5" stroke-miterlimit="10"/>
<path d="M131.148 15.9448H132.65" stroke="#313F88" stroke-width="1.5" stroke-miterlimit="10"/>
<path d="M120.371 2.12695L128.262 2.22297" stroke="#313F88" stroke-width="1.5" stroke-miterlimit="10"/>
<path d="M136.246 2.12695H143.43" stroke="#313F88" stroke-width="1.5" stroke-miterlimit="10"/>
<path d="M120.371 2.12695V18.8193" stroke="#313F88" stroke-width="1.5" stroke-miterlimit="10"/>
<path d="M143.43 2.12695V19.1914" stroke="#313F88" stroke-width="1.5" stroke-miterlimit="10"/>
<path d="M120.371 18.8191C120.371 24.2922 125.528 28.7211 131.899 28.7211" stroke="#313F88" stroke-width="1.5" stroke-miterlimit="10"/>
<path d="M143.431 19.1914C143.431 24.4575 138.273 28.7213 131.902 28.7213" stroke="#313F88" stroke-width="1.5" stroke-miterlimit="10"/>
<path d="M120.371 15.9448H143.431" stroke="#313F88" stroke-width="1.5" stroke-miterlimit="10"/>
<path d="M91.6523 1.76929L99.1336 1.67627" stroke="#313F88" stroke-width="1.5" stroke-miterlimit="10"/>
<path d="M108.137 1.67627L115.102 1.76929" stroke="#313F88" stroke-width="1.5" stroke-miterlimit="10"/>
<path d="M99.1328 1.67627V10.6901" stroke="#313F88" stroke-width="1.5" stroke-miterlimit="10"/>
<path d="M108.137 1.67627V10.6901" stroke="#313F88" stroke-width="1.5" stroke-miterlimit="10"/>
<path d="M102.629 10.78H104.41" stroke="#313F88" stroke-width="1.5" stroke-miterlimit="10"/>
<path d="M91.6523 1.76929V28.3606" stroke="#313F88" stroke-width="1.5" stroke-miterlimit="10"/>
<path d="M99.1328 20.958V28.3605" stroke="#313F88" stroke-width="1.5" stroke-miterlimit="10"/>
<path d="M91.6523 28.3604H99.1336" stroke="#313F88" stroke-width="1.5" stroke-miterlimit="10"/>
<path d="M102.273 20.958H104.412" stroke="#313F88" stroke-width="1.5" stroke-miterlimit="10"/>
<path d="M108.137 28.4594V21.0569" stroke="#313F88" stroke-width="1.5" stroke-miterlimit="10"/>
<path d="M115.098 1.76929V28.3606" stroke="#313F88" stroke-width="1.5" stroke-miterlimit="10"/>
<path d="M108.07 28.3157L115.1 28.3607" stroke="#313F88" stroke-width="1.5" stroke-miterlimit="10"/>
<path d="M115.1 10.78H91.6523" stroke="#313F88" stroke-width="1.5" stroke-miterlimit="10"/>
<path d="M115.1 20.958H91.6523" stroke="#313F88" stroke-width="1.5" stroke-miterlimit="10"/>
<path d="M64.9922 2.12695L65.159 28.4362" stroke="#313F88" stroke-width="1.5" stroke-miterlimit="10"/>
<path d="M89.1136 28.4362L64.9922 2.12695" stroke="#313F88" stroke-width="1.5" stroke-miterlimit="10"/>
<path d="M65.1602 28.4363H89.1147" stroke="#313F88" stroke-width="1.5" stroke-miterlimit="10"/>
<path d="M65.1602 17.7512L79.4825 17.9312" stroke="#313F88" stroke-width="1.5" stroke-miterlimit="10"/>
<path d="M64.9922 2.12695L79.6574 2.16296" stroke="#313F88" stroke-width="1.5" stroke-miterlimit="10"/>
<path d="M85.9331 9.76036C85.9331 5.55952 83.1269 2.16284 79.6562 2.16284" stroke="#313F88" stroke-width="1.5" stroke-miterlimit="10"/>
<path d="M85.9372 9.7605C85.9372 14.2764 83.0521 17.9311 79.4844 17.9311" stroke="#313F88" stroke-width="1.5" stroke-miterlimit="10"/>
<path d="M14.941 1.90161L0.71875 27.9288" stroke="#313F88" stroke-width="1.5" stroke-miterlimit="10"/>
<path d="M30.3286 28.2889L14.9414 1.90161" stroke="#313F88" stroke-width="1.5" stroke-miterlimit="10"/>
<path d="M17.9787 28.0578L9.0625 12.6558" stroke="#313F88" stroke-width="1.5" stroke-miterlimit="10"/>
<path d="M0.71875 27.9287H12.3168" stroke="#313F88" stroke-width="1.5" stroke-miterlimit="10"/>
<path d="M21.2853 12.7817L12.1719 28.0278" stroke="#313F88" stroke-width="1.5" stroke-miterlimit="10"/>
<path d="M30.1193 27.9287H17.9023" stroke="#313F88" stroke-width="1.5" stroke-miterlimit="10"/>
<path d="M228.953 1.67627L214.73 27.7035" stroke="#313F88" stroke-width="1.5" stroke-miterlimit="10"/>
<path d="M244.34 28.0636L228.953 1.67627" stroke="#313F88" stroke-width="1.5" stroke-miterlimit="10"/>
<path d="M231.99 27.8325L223.074 12.4304" stroke="#313F88" stroke-width="1.5" stroke-miterlimit="10"/>
<path d="M214.73 27.7034H226.329" stroke="#313F88" stroke-width="1.5" stroke-miterlimit="10"/>
<path d="M235.297 12.5564L226.184 27.8024" stroke="#313F88" stroke-width="1.5" stroke-miterlimit="10"/>
<path d="M244.131 27.7034H231.914" stroke="#313F88" stroke-width="1.5" stroke-miterlimit="10"/>
<path d="M166.461 36.7339L152.238 62.7611" stroke="#313F88" stroke-width="1.5" stroke-miterlimit="10"/>
<path d="M181.848 63.1212L166.461 36.7339" stroke="#313F88" stroke-width="1.5" stroke-miterlimit="10"/>
<path d="M169.498 62.8901L160.582 47.488" stroke="#313F88" stroke-width="1.5" stroke-miterlimit="10"/>
<path d="M152.238 62.761H163.836" stroke="#313F88" stroke-width="1.5" stroke-miterlimit="10"/>
<path d="M172.805 47.614L163.691 62.8601" stroke="#313F88" stroke-width="1.5" stroke-miterlimit="10"/>
<path d="M181.639 62.761H169.422" stroke="#313F88" stroke-width="1.5" stroke-miterlimit="10"/>
<path d="M47.0738 1.90161L32.8516 27.9288" stroke="#313F88" stroke-width="1.5" stroke-miterlimit="10"/>
<path d="M62.4614 28.2889L47.0742 1.90161" stroke="#313F88" stroke-width="1.5" stroke-miterlimit="10"/>
<path d="M50.1115 28.0578L41.1953 12.6558" stroke="#313F88" stroke-width="1.5" stroke-miterlimit="10"/>
<path d="M32.8516 27.9287H44.4496" stroke="#313F88" stroke-width="1.5" stroke-miterlimit="10"/>
<path d="M53.4181 12.7817L44.3047 28.0278" stroke="#313F88" stroke-width="1.5" stroke-miterlimit="10"/>
<path d="M62.2521 27.9287H50.0352" stroke="#313F88" stroke-width="1.5" stroke-miterlimit="10"/>
</svg>
